<svg width="24" height="24" viewBox="0 0 24 24" fill="none" xmlns="http://www.w3.org/2000/svg">
<path d="M17.0031 12.0001C17.0037 12.4415 16.8141 12.8618 16.4828 13.1535L9.04351 19.6982C8.53079 20.1285 7.76839 20.0707 7.32636 19.5681C6.88433 19.0656 6.92434 18.302 7.41649 17.8484L13.9219 12.1255C13.958 12.0938 13.9787 12.0481 13.9787 12.0001C13.9787 11.9521 13.958 11.9063 13.9219 11.8747L7.41649 6.15177C6.92434 5.69817 6.88433 4.93463 7.32636 4.43207C7.76839 3.9295 8.53079 3.87173 9.04351 4.30195L16.4802 10.8447C16.8122 11.1369 17.0027 11.5578 17.0031 12.0001Z" fill="#FF6200"/>
<mask id="mask0_455_2049" style="mask-type:alpha" maskUnits="userSpaceOnUse" x="7" y="4" width="11" height="16">
<path d="M17.0031 12.0001C17.0037 12.4415 16.8141 12.8618 16.4828 13.1535L9.04351 19.6982C8.53079 20.1285 7.76839 20.0707 7.32636 19.5681C6.88433 19.0656 6.92434 18.302 7.41649 17.8484L13.9219 12.1255C13.958 12.0938 13.9787 12.0481 13.9787 12.0001C13.9787 11.9521 13.958 11.9063 13.9219 11.8747L7.41649 6.15177C6.92434 5.69817 6.88433 4.93463 7.32636 4.43207C7.76839 3.9295 8.53079 3.87173 9.04351 4.30195L16.4802 10.8447C16.8122 11.1369 17.0027 11.5578 17.0031 12.0001Z" fill="white"/>
</mask>
<g mask="url(#mask0_455_2049)">
</g>
</svg>
