<svg width="18" height="18" viewBox="0 0 18 18" fill="none" xmlns="http://www.w3.org/2000/svg">
<path fill-rule="evenodd" clip-rule="evenodd" d="M4.32 8.19162L12.1067 0.323353C12.56 -0.107784 13.2533 -0.107784 13.68 0.323353C14.1067 0.754491 14.1067 1.45509 13.68 1.91317L6.66667 9L13.68 16.0868C14.1067 16.518 14.1067 17.2455 13.68 17.6766C13.2533 18.1078 12.56 18.1078 12.1067 17.6766L4.32 9.78144C3.89333 9.3503 3.89333 8.6497 4.32 8.19162Z" fill="white"/>
<mask id="mask0_601_1462" style="mask-type:alpha" maskUnits="userSpaceOnUse" x="4" y="0" width="10" height="18">
<path fill-rule="evenodd" clip-rule="evenodd" d="M4.32 8.19162L12.1067 0.323353C12.56 -0.107784 13.2533 -0.107784 13.68 0.323353C14.1067 0.754491 14.1067 1.45509 13.68 1.91317L6.66667 9L13.68 16.0868C14.1067 16.518 14.1067 17.2455 13.68 17.6766C13.2533 18.1078 12.56 18.1078 12.1067 17.6766L4.32 9.78144C3.89333 9.3503 3.89333 8.6497 4.32 8.19162Z" fill="white"/>
</mask>
<g mask="url(#mask0_601_1462)">
<rect x="-1.05115" y="-1" width="20" height="20" fill="#FF6200"/>
</g>
</svg>
