<svg width="16" height="16" viewBox="0 0 16 16" fill="none" xmlns="http://www.w3.org/2000/svg">
<path d="M15.9585 13.8628C15.9585 14.0293 15.9033 14.168 15.7927 14.2791L14.2176 15.8194C14.1071 15.9304 13.9827 15.9859 13.8446 15.9859C13.6788 15.9859 13.5406 15.9304 13.4301 15.8194L8 10.3658L2.56995 15.8194C2.45941 15.9304 2.33506 15.9859 2.19689 15.9859C2.03109 15.9859 1.89292 15.9304 1.78238 15.8194L0.207254 14.2791C0.0967185 14.168 0.0414508 14.0293 0.0414508 13.8628C0.0414508 13.6962 0.0967185 13.5575 0.207254 13.4465L5.67876 7.99294L0.207254 2.58105C-0.0690846 2.30352 -0.0690846 2.02599 0.207254 1.74846L1.74093 0.16652C1.90674 0.0555065 2.04491 0 2.15544 0C2.32124 0 2.45941 0.0555065 2.56995 0.16652L8 5.57841L13.4301 0.16652C13.5959 0.0555065 13.734 0 13.8446 0C14.0104 0 14.1485 0.0555065 14.2591 0.16652L15.7927 1.74846C16.0691 2.02599 16.0691 2.28964 15.7927 2.53942L10.3212 7.95131L15.7927 13.4465C15.9033 13.5575 15.9585 13.6962 15.9585 13.8628Z" fill="#595959"/>
</svg>
