<svg width="500" height="513" viewBox="0 0 500 513" fill="none" xmlns="http://www.w3.org/2000/svg">
<g id="home">
<path id="Shape" fill-rule="evenodd" clip-rule="evenodd" d="M485.352 426.418H440.43L441.987 245.737C446.734 247.449 450.107 250.981 455.011 250.981C469.222 250.981 483.185 243.975 491.643 231.037C498.153 221.076 500.472 209.124 498.17 197.385C495.868 185.645 489.221 175.523 479.454 168.882L274.376 29.4402C259.568 19.3705 240.432 19.3715 225.624 29.4402L176.758 62.6663V29.8805H181.641C189.73 29.8805 196.289 23.1912 196.289 14.9402C196.289 6.68924 189.73 0 181.641 0H74.2188C66.1289 0 59.5703 6.68924 59.5703 14.9402C59.5703 23.1912 66.1289 29.8805 74.2188 29.8805H79.1016V129.068L20.5459 168.882C10.7793 175.523 4.13281 185.645 1.83008 197.385C-0.47168 209.124 1.84668 221.076 8.35742 231.038C19.7324 248.439 39.3346 251.076 57.8434 244.405L59.5703 426.418H14.6484C6.55859 426.418 0 433.107 0 441.358V495.02C0 503.271 6.55859 509.96 14.6484 509.96H485.352C493.441 509.96 500 503.271 500 495.02V441.358C500 433.107 493.441 426.418 485.352 426.418ZM102.539 21.4976H152.344V79.7774L103.521 113.651L102.539 21.4976ZM33.0224 187.928L241.24 44.8234C243.708 43.1451 246.536 42.3064 249.365 42.3064C252.194 42.3064 255.022 43.1461 257.49 44.8244L466.343 189.087C469.598 191.3 481.216 203.832 473.576 215.17C465.936 226.507 453.673 223.176 446.952 218.607L257.49 95.22C252.57 91.8754 247.528 91.8754 242.608 95.22L54.4162 220.714C47.6965 225.285 35.3162 230.286 25.7083 215.481C16.1005 200.676 29.7666 190.142 33.0224 187.928ZM82.0312 228.452L250 114.242L417.969 228.452V426.677H82.0312V228.452ZM477.539 488.048H23.4375V450.199H477.539V488.048Z" fill="#595959"/>
<path id="Facility" fill-rule="evenodd" clip-rule="evenodd" d="M256.973 234.491C264.516 216.517 281.241 203.986 300.591 203.986C313.797 204 325.738 209.789 334.44 219.188C343.129 228.615 348.472 241.551 348.472 255.873C348.472 261.893 347.513 267.697 345.767 273.082C343.768 279.203 340.73 284.79 336.905 289.641C335.226 291.749 333.427 293.683 331.521 295.43L331.121 295.82L250.603 382.472L167.074 292.586C167.047 292.543 167.034 292.514 167.034 292.514C162.076 287.129 158.225 280.647 155.826 273.443C153.987 267.956 152.988 262.052 152.988 255.873C152.988 241.551 158.358 228.615 167.034 219.188C175.722 209.789 187.663 204 200.869 203.986C220.246 203.986 236.944 216.517 244.5 234.491C245.606 237.148 248.045 238.851 250.737 238.851C253.415 238.851 255.854 237.148 256.973 234.491Z" fill="#A0D9E3" stroke="#595959" stroke-width="1.63946"/>
</g>
</svg>
