<svg width="40" height="40" viewBox="0 0 40 40" fill="none" xmlns="http://www.w3.org/2000/svg">
<path fill-rule="evenodd" clip-rule="evenodd" d="M26.0436 9.1997C24.6262 7.86411 22.1973 7.55929 20.0001 9.75655C17.806 7.56145 15.374 7.86411 13.9565 9.19862C12.3054 10.7529 12.2763 13.3529 13.8682 14.9449L20.0001 21.0778L26.1319 14.946C27.7239 13.354 27.6948 10.7539 26.0436 9.1997Z" fill="#595959"/>
<path fill-rule="evenodd" clip-rule="evenodd" d="M32.1614 9.22974C31.2125 9.22974 30.4251 9.94061 30.3303 10.8841L29.6485 17.617C29.32 17.687 29.0185 17.8464 28.7847 18.0802L23.3444 23.1446C22.5958 23.8264 22.1617 24.799 22.1542 25.8158V31.3458C22.1542 31.6235 22.3793 31.8486 22.6569 31.8486H28.114C28.3916 31.8486 28.6167 31.6235 28.6167 31.3458V29.0094C28.6167 28.571 28.8009 28.1445 29.1348 27.8278L33.2223 23.7026C33.7253 23.1942 34.0021 22.521 34.0021 21.8069V11.0705C34.0021 10.0559 33.176 9.22974 32.1614 9.22974ZM32.9251 21.807C32.9251 22.2357 32.7592 22.6396 32.4566 22.9455L28.382 27.0578C27.8467 27.5641 27.5397 28.2749 27.5397 29.0095V30.7716H23.2313V25.8224C23.2367 25.1083 23.5415 24.4244 24.0747 23.9397L29.5323 18.8569C29.6788 18.7104 29.8791 18.6382 30.0913 18.6598C30.2087 18.6706 30.3778 18.7126 30.5221 18.8569C30.6546 18.9894 30.7279 19.166 30.7279 19.3524C30.7279 19.5387 30.6535 19.7153 30.5404 19.8295L26.7377 23.2784C26.5174 23.4782 26.5009 23.8188 26.7008 24.039C26.9006 24.259 27.2409 24.2755 27.461 24.0758L31.2836 20.6082C31.6197 20.2722 31.8049 19.8263 31.8049 19.3513C31.8049 18.8763 31.6208 18.4304 31.2847 18.0954C31.121 17.9295 30.9304 17.8024 30.7214 17.7152L31.401 10.9942C31.4409 10.6021 31.7683 10.307 32.1615 10.307C32.5826 10.307 32.9251 10.6495 32.9251 11.0706V21.807Z" fill="#595959"/>
<path fill-rule="evenodd" clip-rule="evenodd" d="M16.6557 23.1446L11.2153 18.0802C10.9816 17.8464 10.68 17.6859 10.3515 17.617L9.66972 10.8841C9.57493 9.94061 8.78758 9.22974 7.83867 9.22974C6.82405 9.22974 5.99792 10.0559 5.99792 11.0705V21.8069C5.99792 22.521 6.27474 23.1942 6.77774 23.7015L10.8653 27.8267C11.1992 28.1434 11.3834 28.571 11.3834 29.0094V31.3458C11.3834 31.6235 11.6084 31.8486 11.8861 31.8486H17.3432C17.6208 31.8486 17.8459 31.6235 17.8459 31.3458V25.8158C17.8394 24.799 17.4043 23.8275 16.6557 23.1446ZM12.4606 30.7716V29.0095C12.4606 28.276 12.1536 27.5641 11.6183 27.0578L7.54365 22.9455C7.24099 22.6396 7.07511 22.2357 7.07511 21.807V11.0706C7.07511 10.6495 7.41763 10.307 7.83877 10.307C8.23191 10.307 8.55934 10.6021 8.59919 10.992L9.27884 17.713C9.06988 17.8013 8.87924 17.9284 8.71552 18.0932C8.38054 18.4282 8.19529 18.8741 8.19529 19.3491C8.19529 19.8241 8.38054 20.27 8.7166 20.6061L12.5392 24.0737C12.7593 24.2733 13.0996 24.2568 13.2994 24.0368C13.4993 23.8167 13.4828 23.476 13.2625 23.2762L9.45979 19.8273C9.34562 19.7132 9.27237 19.5376 9.27237 19.3502C9.27237 19.1628 9.34562 18.9872 9.4781 18.8547C9.62135 18.7104 9.79153 18.6684 9.90893 18.6576C10.1222 18.6372 10.3215 18.7083 10.4679 18.8547L15.9255 23.9375C16.4587 24.4222 16.7635 25.1062 16.7689 25.8203V30.7716H12.4606Z" fill="#595959"/>
<path d="M25.3704 14.1833L20 19.5547L14.6296 14.1843C13.4642 13.0179 13.4869 11.1211 14.6953 9.9837C15.2102 9.49685 15.8995 9.22974 16.6363 9.22974C18.1786 9.22974 18.8723 10.1517 20 11.2794C21.0976 10.1819 21.8041 9.22974 23.3637 9.22974C24.1005 9.22974 24.7898 9.49685 25.3057 9.98262C26.511 11.1179 26.539 13.0146 25.3704 14.1833Z" fill="#A0D9E3"/>
</svg>
