<svg width="40" height="40" viewBox="0 0 40 40" fill="none" xmlns="http://www.w3.org/2000/svg">
<path fill-rule="evenodd" clip-rule="evenodd" d="M30.0916 21.7871L31.9198 28.5835C32.1862 29.5735 31.9714 30.6007 31.3305 31.4026C30.7189 32.1669 29.8208 32.5974 28.8491 32.5974C28.8027 32.5974 28.7568 32.5961 28.71 32.5944L28.3031 32.555V32.6714C28.3031 33.4041 27.7073 34 26.9745 34H13.0261C12.2933 34 11.6975 33.4037 11.6975 32.6714V32.5357L11.3256 32.5909L11.3238 32.5911C11.3126 32.5923 11.3018 32.5935 11.2906 32.5939C10.2647 32.6368 9.31054 32.2024 8.66963 31.4018C8.02871 30.6012 7.8139 29.574 8.08033 28.5835L9.90859 21.7876C10.2533 20.5053 11.1458 19.4584 12.3572 18.9146L16.6673 16.9792C15.9538 15.9891 15.494 14.6859 15.4358 13.2435C15.4253 13.2395 15.4148 13.2356 15.4043 13.2308C15.3107 13.1875 15.242 13.103 15.2197 13.002C15.1895 12.8694 14.5122 9.73572 16.0518 7.68697C16.8126 6.67376 17.975 6.11159 19.5057 6.01578C21.2364 5.90641 22.5633 6.3662 23.451 7.37811C25.1493 9.31355 24.6164 12.5768 24.5464 12.9609C24.5403 14.5109 24.0713 15.9178 23.3145 16.9709L27.643 18.9142C28.8544 19.458 29.7464 20.5053 30.0916 21.7871ZM16.5842 8.08377C15.5408 9.47016 15.6751 11.5312 15.7949 12.4219L15.8947 12.3689L17.7138 9.68672C17.8039 9.55416 17.9754 9.50385 18.1232 9.56903C18.9794 9.94702 21.4206 10.7708 22.408 10.0577C22.4657 10.0161 22.534 9.99471 22.6027 9.99471C22.6469 9.99471 22.6919 10.0035 22.7339 10.0218C22.8407 10.0678 22.9159 10.1671 22.9317 10.283C23.1185 11.6808 23.6163 12.2394 23.9471 12.4599C24.0556 11.5285 24.1763 9.20942 22.9505 7.81428C22.2059 6.96599 21.0592 6.58451 19.5473 6.67857C18.2199 6.76169 17.2233 7.23461 16.5842 8.08377ZM16.2781 12.9189C16.3262 12.8936 16.3678 12.8564 16.3984 12.8113L18.1112 10.2853C18.8768 10.5937 20.9916 11.3435 22.3504 10.833C22.6785 12.4447 23.4502 12.9898 23.8785 13.1718C23.7849 15.9634 22.0757 18.1959 19.9884 18.1959C17.8618 18.1959 16.1285 15.8803 16.0944 13.0161L16.2781 12.9189ZM20 20.3835C21.5207 20.3835 22.7579 19.1472 22.7596 17.6265C21.9905 18.3965 21.0311 18.8593 19.9881 18.8593C18.9566 18.8593 18.0063 18.4078 17.2416 17.654C17.2582 19.1616 18.4884 20.3835 20 20.3835ZM26.9745 33.3344H13.0257C12.6595 33.3344 12.3616 33.0365 12.3616 32.6703V24.5676C12.3616 24.2015 12.6595 23.9035 13.0257 23.9035H26.974C27.3402 23.9035 27.6381 24.2015 27.6381 24.5676V32.6703C27.6386 33.0365 27.3406 33.3344 26.9745 33.3344ZM28.7563 31.931C29.5499 31.9621 30.305 31.6195 30.8125 30.986C31.3191 30.3526 31.4893 29.5397 31.2789 28.7562L29.4506 21.9598C29.1575 20.8714 28.3998 19.982 27.3717 19.5204L23.4225 17.7473C23.3578 19.5786 21.8476 21.0481 20.0005 21.0481C18.1534 21.0481 16.6432 19.5786 16.5785 17.7473L12.6293 19.5204C11.6012 19.982 10.843 20.8714 10.5504 21.9598L8.72166 28.7562C8.51079 29.5397 8.68054 30.353 9.18802 30.9865C9.69201 31.6156 10.437 31.9625 11.2455 31.9306L11.697 31.8632V28.3834H10.9572V27.7193H11.697V24.5677C11.697 23.8349 12.2929 23.239 13.0256 23.239H26.9744C27.7072 23.239 28.3031 23.8353 28.3031 24.5677V27.7193H29.2446V28.3834H28.3031V31.8868L28.7563 31.931ZM20.0001 26.8749C19.0385 26.8749 18.2558 27.6575 18.2558 28.6191C18.2558 29.5807 19.0381 30.3634 20.0001 30.3634C20.9621 30.3634 21.7444 29.5807 21.7444 28.6191C21.7444 27.6575 20.9617 26.8749 20.0001 26.8749ZM18.9202 28.6191C18.9202 29.2145 19.4045 29.6988 19.9999 29.6988C20.5953 29.6988 21.0801 29.2145 21.0801 28.6191C21.0801 28.0237 20.5953 27.539 19.9999 27.539C19.4045 27.539 18.9202 28.0237 18.9202 28.6191Z" fill="#595959"/>
<path d="M31.9198 28.5835L31.7377 28.6325L31.7377 28.6325L31.9198 28.5835ZM30.0916 21.7871L30.2737 21.7381L30.2737 21.7381L30.0916 21.7871ZM31.3305 31.4026L31.4778 31.5205L31.4779 31.5204L31.3305 31.4026ZM28.71 32.5944L28.6918 32.7824L28.7029 32.7828L28.71 32.5944ZM28.3031 32.555L28.3213 32.3673L28.1145 32.3472V32.555H28.3031ZM11.6975 32.5357H11.8861V32.3171L11.6698 32.3492L11.6975 32.5357ZM11.3256 32.5909L11.3466 32.7784L11.3533 32.7774L11.3256 32.5909ZM11.3238 32.5911L11.3447 32.7785L11.3448 32.7785L11.3238 32.5911ZM11.2906 32.5939L11.2836 32.4054L11.2827 32.4055L11.2906 32.5939ZM8.66963 31.4018L8.81687 31.2839H8.81687L8.66963 31.4018ZM8.08033 28.5835L7.8982 28.5345L7.8982 28.5345L8.08033 28.5835ZM9.90859 21.7876L10.0907 21.8366L10.0907 21.8365L9.90859 21.7876ZM12.3572 18.9146L12.4344 19.0867L12.4345 19.0867L12.3572 18.9146ZM16.6673 16.9792L16.7446 17.1512L16.9555 17.0565L16.8203 16.8689L16.6673 16.9792ZM15.4358 13.2435L15.6242 13.2359L15.6192 13.1108L15.502 13.0669L15.4358 13.2435ZM15.4043 13.2308L15.3251 13.402L15.3257 13.4023L15.4043 13.2308ZM15.2197 13.002L15.4038 12.9613L15.4036 12.9601L15.2197 13.002ZM16.0518 7.68697L16.2025 7.80028L16.2026 7.80022L16.0518 7.68697ZM19.5057 6.01578L19.5175 6.20402L19.5176 6.20401L19.5057 6.01578ZM23.451 7.37811L23.3092 7.50249L23.3092 7.50251L23.451 7.37811ZM24.5464 12.9609L24.3609 12.9271L24.3579 12.9435L24.3578 12.9601L24.5464 12.9609ZM23.3145 16.9709L23.1613 16.8608L23.0265 17.0483L23.2372 17.1429L23.3145 16.9709ZM27.643 18.9142L27.5657 19.0862L27.5657 19.0862L27.643 18.9142ZM15.7949 12.4219L15.608 12.447L15.6441 12.7154L15.8834 12.5885L15.7949 12.4219ZM16.5842 8.08377L16.4335 7.97034L16.4335 7.97035L16.5842 8.08377ZM15.8947 12.3689L15.9831 12.5355L16.0245 12.5136L16.0508 12.4748L15.8947 12.3689ZM17.7138 9.68672L17.5578 9.58068L17.5577 9.58085L17.7138 9.68672ZM18.1232 9.56903L18.1994 9.39649L18.1993 9.39645L18.1232 9.56903ZM22.408 10.0577L22.2978 9.90462L22.2976 9.9048L22.408 10.0577ZM22.7339 10.0218L22.6583 10.1946L22.6594 10.1951L22.7339 10.0218ZM22.9317 10.283L23.1186 10.258L23.1185 10.2576L22.9317 10.283ZM23.9471 12.4599L23.8424 12.6169L24.0988 12.7878L24.1344 12.4818L23.9471 12.4599ZM22.9505 7.81428L22.8087 7.9387L22.8088 7.93877L22.9505 7.81428ZM19.5473 6.67857L19.5356 6.49032L19.5355 6.49033L19.5473 6.67857ZM16.3984 12.8113L16.5544 12.9173L16.5545 12.9172L16.3984 12.8113ZM16.2781 12.9189L16.1901 12.7521L16.19 12.7522L16.2781 12.9189ZM18.1112 10.2853L18.1816 10.1103L18.0405 10.0534L17.9551 10.1794L18.1112 10.2853ZM22.3504 10.833L22.5352 10.7954L22.4911 10.5787L22.2841 10.6564L22.3504 10.833ZM23.8785 13.1718L24.067 13.1781L24.0714 13.0488L23.9523 12.9982L23.8785 13.1718ZM16.0944 13.0161L16.0062 12.8493L15.9044 12.9031L15.9058 13.0183L16.0944 13.0161ZM22.7596 17.6265L22.9482 17.6267L22.9488 17.1703L22.6262 17.4932L22.7596 17.6265ZM17.2416 17.654L17.374 17.5197L17.048 17.1983L17.053 17.6561L17.2416 17.654ZM27.6381 32.6703H27.4495V32.6705L27.6381 32.6703ZM30.8125 30.986L30.9597 31.104L30.9598 31.1038L30.8125 30.986ZM28.7563 31.931L28.738 32.119L28.749 32.1195L28.7563 31.931ZM31.2789 28.7562L31.461 28.7073L31.461 28.7072L31.2789 28.7562ZM29.4506 21.9598L29.6328 21.9108L29.6327 21.9108L29.4506 21.9598ZM27.3717 19.5204L27.2944 19.6925L27.2944 19.6925L27.3717 19.5204ZM23.4225 17.7473L23.4998 17.5752L23.2439 17.4604L23.234 17.7406L23.4225 17.7473ZM16.5785 17.7473L16.767 17.7406L16.7571 17.4604L16.5012 17.5752L16.5785 17.7473ZM12.6293 19.5204L12.7065 19.6925L12.7065 19.6925L12.6293 19.5204ZM10.5504 21.9598L10.7325 22.0088L10.7325 22.0088L10.5504 21.9598ZM8.72166 28.7562L8.90379 28.8052L8.90379 28.8052L8.72166 28.7562ZM9.18802 30.9865L9.04082 31.1044H9.04082L9.18802 30.9865ZM11.2455 31.9306L11.253 32.119L11.2632 32.1186L11.2734 32.1171L11.2455 31.9306ZM11.697 31.8632L11.7248 32.0497L11.8856 32.0258V31.8632H11.697ZM11.697 28.3834H11.8856V28.1948H11.697V28.3834ZM10.9572 28.3834H10.7686V28.572H10.9572V28.3834ZM10.9572 27.7193V27.5307H10.7686V27.7193H10.9572ZM11.697 27.7193V27.9079H11.8856V27.7193H11.697ZM28.3031 27.7193H28.1145V27.9079H28.3031V27.7193ZM29.2446 27.7193H29.4332V27.5307H29.2446V27.7193ZM29.2446 28.3834V28.572H29.4332V28.3834H29.2446ZM28.3031 28.3834V28.1948H28.1145V28.3834H28.3031ZM28.3031 31.8868H28.1145V32.0579L28.2848 32.0745L28.3031 31.8868ZM32.1019 28.5345L30.2737 21.7381L29.9094 21.8361L31.7377 28.6325L32.1019 28.5345ZM31.4779 31.5204C32.1562 30.6717 32.384 29.5826 32.1019 28.5345L31.7377 28.6325C31.9885 29.5645 31.7867 30.5298 31.1832 31.2849L31.4779 31.5204ZM28.8491 32.786C29.8781 32.786 30.8304 32.3294 31.4778 31.5205L31.1833 31.2848C30.6074 32.0044 29.7634 32.4088 28.8491 32.4088V32.786ZM28.7029 32.7828C28.7507 32.7846 28.7993 32.786 28.8491 32.786V32.4088C28.8062 32.4088 28.7629 32.4076 28.717 32.4059L28.7029 32.7828ZM28.285 32.7427L28.6918 32.7821L28.7281 32.4066L28.3213 32.3673L28.285 32.7427ZM28.4917 32.6714V32.555H28.1145V32.6714H28.4917ZM26.9745 34.1886C27.8114 34.1886 28.4917 33.5083 28.4917 32.6714H28.1145C28.1145 33.3 27.6031 33.8114 26.9745 33.8114V34.1886ZM13.0261 34.1886H26.9745V33.8114H13.0261V34.1886ZM11.5089 32.6714C11.5089 33.5078 12.1891 34.1886 13.0261 34.1886V33.8114C12.3975 33.8114 11.8861 33.2996 11.8861 32.6714H11.5089ZM11.5089 32.5357V32.6714H11.8861V32.5357H11.5089ZM11.3533 32.7774L11.7251 32.7223L11.6698 32.3492L11.2979 32.4043L11.3533 32.7774ZM11.3448 32.7785L11.3466 32.7783L11.3046 32.4034L11.3029 32.4036L11.3448 32.7785ZM11.2976 32.7824C11.3169 32.7817 11.3346 32.7796 11.3447 32.7785L11.303 32.4036C11.2907 32.405 11.2868 32.4053 11.2836 32.4054L11.2976 32.7824ZM8.52239 31.5196C9.20083 32.3671 10.2126 32.8277 11.2985 32.7824L11.2827 32.4055C10.3168 32.4458 9.42026 32.0376 8.81687 31.2839L8.52239 31.5196ZM7.8982 28.5345C7.61617 29.583 7.84393 30.6721 8.52239 31.5196L8.81687 31.2839C8.21349 30.5302 8.01164 29.5649 8.26247 28.6325L7.8982 28.5345ZM9.72645 21.7386L7.8982 28.5345L8.26247 28.6325L10.0907 21.8366L9.72645 21.7386ZM12.28 18.7425C11.0169 19.3095 10.0859 20.4016 9.72645 21.7386L10.0907 21.8365C10.4208 20.609 11.2747 19.6073 12.4344 19.0867L12.28 18.7425ZM16.59 16.8071L12.2799 18.7426L12.4345 19.0867L16.7446 17.1512L16.59 16.8071ZM15.2473 13.2511C15.3069 14.7282 15.7778 16.0676 16.5143 17.0895L16.8203 16.8689C16.1297 15.9107 15.681 14.6436 15.6242 13.2359L15.2473 13.2511ZM15.3257 13.4023C15.3433 13.4103 15.36 13.4165 15.3696 13.4201L15.502 13.0669C15.4906 13.0626 15.4863 13.0609 15.4829 13.0593L15.3257 13.4023ZM15.0355 13.0427C15.0707 13.2019 15.1787 13.3342 15.3251 13.402L15.4835 13.0596C15.4426 13.0407 15.4133 13.0042 15.4038 12.9613L15.0355 13.0427ZM15.901 7.57367C15.0968 8.64391 14.8782 9.98621 14.8585 11.0596C14.8388 12.1363 15.0187 12.969 15.0358 13.0439L15.4036 12.9601C15.3904 12.9024 15.2167 12.102 15.2357 11.0665C15.2547 10.0277 15.4673 8.77878 16.2025 7.80028L15.901 7.57367ZM19.4939 5.82754C17.9208 5.926 16.7018 6.50709 15.9009 7.57373L16.2026 7.80022C16.9233 6.84042 18.0291 6.29718 19.5175 6.20402L19.4939 5.82754ZM23.5927 7.25373C22.656 6.18582 21.2647 5.71563 19.4938 5.82754L19.5176 6.20401C21.2081 6.09718 22.4706 6.54659 23.3092 7.50249L23.5927 7.25373ZM24.732 12.9947C24.7684 12.7949 24.9217 11.8663 24.85 10.7393C24.7786 9.61589 24.4818 8.26695 23.5927 7.25371L23.3092 7.50251C24.1184 8.4247 24.4044 9.67509 24.4736 10.7632C24.5426 11.8476 24.3945 12.7427 24.3609 12.9271L24.732 12.9947ZM23.4676 17.0809C24.2488 15.9941 24.7288 14.5484 24.735 12.9616L24.3578 12.9601C24.3518 14.4734 23.8938 15.8416 23.1613 16.8608L23.4676 17.0809ZM27.7202 18.7421L23.3917 16.7988L23.2372 17.1429L27.5657 19.0862L27.7202 18.7421ZM30.2737 21.7381C29.9138 20.4017 28.9833 19.3091 27.7202 18.7421L27.5657 19.0862C28.7254 19.6068 29.579 20.609 29.9094 21.8362L30.2737 21.7381ZM15.9819 12.3967C15.9231 11.9598 15.8611 11.2379 15.941 10.4579C16.021 9.67627 16.2417 8.85246 16.7349 8.19719L16.4335 7.97035C15.8832 8.70147 15.6494 9.60136 15.5657 10.4195C15.4818 11.2393 15.547 11.9932 15.608 12.447L15.9819 12.3967ZM15.8063 12.2023L15.7065 12.2553L15.8834 12.5885L15.9831 12.5355L15.8063 12.2023ZM17.5577 9.58085L15.7386 12.2631L16.0508 12.4748L17.8699 9.79258L17.5577 9.58085ZM18.1993 9.39645C17.9675 9.29426 17.6987 9.37346 17.5578 9.58068L17.8697 9.79276C17.9091 9.73486 17.9832 9.71344 18.0472 9.74162L18.1993 9.39645ZM22.2976 9.9048C22.093 10.0526 21.7974 10.1306 21.4339 10.1469C21.073 10.1632 20.6645 10.1178 20.2525 10.0374C19.4283 9.87658 18.6175 9.58109 18.1994 9.39649L18.0471 9.74158C18.4851 9.93497 19.323 10.2404 20.1803 10.4076C20.609 10.4913 21.0495 10.5418 21.4508 10.5238C21.8495 10.5058 22.2293 10.4194 22.5184 10.2106L22.2976 9.9048ZM22.6027 9.8061C22.4948 9.8061 22.3879 9.83978 22.2978 9.90462L22.5182 10.2108C22.5436 10.1925 22.5732 10.1833 22.6027 10.1833V9.8061ZM22.8095 9.84904C22.7424 9.81968 22.6714 9.8061 22.6027 9.8061V10.1833C22.6223 10.1833 22.6414 10.1872 22.6583 10.1946L22.8095 9.84904ZM23.1185 10.2576C23.0939 10.0766 22.9764 9.92086 22.8085 9.84858L22.6594 10.1951C22.7049 10.2147 22.7379 10.2576 22.7448 10.3084L23.1185 10.2576ZM24.0517 12.303C23.7774 12.1202 23.3003 11.6172 23.1186 10.258L22.7447 10.308C22.9367 11.7443 23.4552 12.3587 23.8424 12.6169L24.0517 12.303ZM22.8088 7.93877C23.3865 8.59626 23.6548 9.48211 23.762 10.3345C23.8689 11.1845 23.813 11.9807 23.7597 12.4381L24.1344 12.4818C24.1896 12.0078 24.2483 11.1787 24.1363 10.2875C24.0245 9.39872 23.7403 8.42744 23.0922 7.68979L22.8088 7.93877ZM19.559 6.86681C21.0343 6.77503 22.115 7.14838 22.8087 7.9387L23.0922 7.68986C22.2967 6.78361 21.0841 6.39398 19.5356 6.49032L19.559 6.86681ZM16.7349 8.1972C17.3328 7.40276 18.2718 6.94742 19.5591 6.86681L19.5355 6.49033C18.1681 6.57596 17.1138 7.06646 16.4335 7.97034L16.7349 8.1972ZM16.2424 12.7053C16.2291 12.7249 16.2109 12.7412 16.1901 12.7521L16.3661 13.0858C16.4416 13.046 16.5065 12.9879 16.5544 12.9173L16.2424 12.7053ZM17.9551 10.1794L16.2423 12.7055L16.5545 12.9172L18.2673 10.3911L17.9551 10.1794ZM22.2841 10.6564C21.656 10.8924 20.8313 10.8418 20.0461 10.6815C19.2675 10.5225 18.5591 10.2624 18.1816 10.1103L18.0407 10.4602C18.4288 10.6166 19.1607 10.8856 19.9706 11.051C20.7739 11.2151 21.686 11.2841 22.4167 11.0096L22.2841 10.6564ZM23.9523 12.9982C23.5842 12.8418 22.8516 12.3495 22.5352 10.7954L22.1656 10.8706C22.5054 12.5399 23.3163 13.1378 23.8048 13.3454L23.9523 12.9982ZM19.9884 18.3845C21.1039 18.3845 22.1038 17.7875 22.8304 16.8459C23.5569 15.9044 24.0191 14.6092 24.067 13.1781L23.69 13.1655C23.6444 14.526 23.2051 15.7429 22.5318 16.6155C21.8585 17.488 20.9602 18.0073 19.9884 18.0073V18.3845ZM15.9058 13.0183C15.9233 14.4864 16.376 15.8212 17.1059 16.7933C17.8357 17.7653 18.8519 18.3845 19.9884 18.3845V18.0073C18.9983 18.0073 18.0846 17.4686 17.4075 16.5668C16.7305 15.665 16.2996 14.4099 16.283 13.0138L15.9058 13.0183ZM16.19 12.7522L16.0062 12.8493L16.1825 13.1828L16.3662 13.0857L16.19 12.7522ZM22.571 17.6263C22.5694 19.0429 21.4165 20.1949 20 20.1949V20.5721C21.6248 20.5721 22.9464 19.2514 22.9482 17.6267L22.571 17.6263ZM19.9881 19.0479C21.09 19.0479 22.0953 18.5584 22.8931 17.7598L22.6262 17.4932C21.8857 18.2345 20.9723 18.6707 19.9881 18.6707V19.0479ZM17.1092 17.7884C17.9027 18.5706 18.8986 19.0479 19.9881 19.0479V18.6707C19.0145 18.6707 18.1099 18.2451 17.374 17.5197L17.1092 17.7884ZM20 20.1949C18.5921 20.1949 17.4457 19.0565 17.4302 17.652L17.053 17.6561C17.0708 19.2668 18.3848 20.5721 20 20.5721V20.1949ZM13.0257 33.523H26.9745V33.1458H13.0257V33.523ZM12.173 32.6703C12.173 33.1406 12.5553 33.523 13.0257 33.523V33.1458C12.7637 33.1458 12.5502 32.9323 12.5502 32.6703H12.173ZM12.173 24.5676V32.6703H12.5502V24.5676H12.173ZM13.0257 23.7149C12.5553 23.7149 12.173 24.0973 12.173 24.5676H12.5502C12.5502 24.3056 12.7637 24.0921 13.0257 24.0921V23.7149ZM26.974 23.7149H13.0257V24.0921H26.974V23.7149ZM27.8267 24.5676C27.8267 24.0973 27.4444 23.7149 26.974 23.7149V24.0921C27.236 24.0921 27.4495 24.3056 27.4495 24.5676H27.8267ZM27.8267 32.6703V24.5676H27.4495V32.6703H27.8267ZM26.9745 33.523C27.4448 33.523 27.8273 33.1406 27.8267 32.6701L27.4495 32.6705C27.4498 32.9323 27.2365 33.1458 26.9745 33.1458V33.523ZM30.6653 30.8681C30.195 31.4552 29.4971 31.7713 28.7637 31.7425L28.749 32.1195C29.6027 32.1529 30.415 31.7838 30.9597 31.104L30.6653 30.8681ZM31.0967 28.8051C31.2916 29.5306 31.1344 30.2816 30.6652 30.8682L30.9598 31.1038C31.5039 30.4235 31.687 29.5488 31.461 28.7073L31.0967 28.8051ZM29.2685 22.0088L31.0967 28.8052L31.461 28.7072L29.6328 21.9108L29.2685 22.0088ZM27.2944 19.6925C28.2708 20.1308 28.9901 20.975 29.2685 22.0089L29.6327 21.9108C29.3249 20.7677 28.5287 19.8331 27.4489 19.3483L27.2944 19.6925ZM23.3452 17.9193L27.2944 19.6925L27.4489 19.3483L23.4998 17.5752L23.3452 17.9193ZM20.0005 21.2367C21.9495 21.2367 23.5427 19.6864 23.611 17.7539L23.234 17.7406C23.1728 19.4708 21.7456 20.8595 20.0005 20.8595V21.2367ZM16.39 17.7539C16.4583 19.6864 18.0515 21.2367 20.0005 21.2367V20.8595C18.2553 20.8595 16.8281 19.4708 16.767 17.7406L16.39 17.7539ZM12.7065 19.6925L16.6557 17.9193L16.5012 17.5752L12.552 19.3483L12.7065 19.6925ZM10.7325 22.0088C11.0105 20.9751 11.7301 20.1308 12.7065 19.6925L12.552 19.3483C11.4723 19.8331 10.6756 20.7677 10.3682 21.9109L10.7325 22.0088ZM8.90379 28.8052L10.7325 22.0088L10.3682 21.9108L8.53953 28.7072L8.90379 28.8052ZM9.33522 30.8686C8.86535 30.282 8.70852 29.5308 8.90379 28.8052L8.53953 28.7072C8.31306 29.5487 8.49573 30.424 9.04082 31.1044L9.33522 30.8686ZM11.2381 31.7421C10.4905 31.7716 9.80243 31.4518 9.33522 30.8686L9.04082 31.1044C9.58158 31.7794 10.3836 32.1534 11.253 32.119L11.2381 31.7421ZM11.6692 31.6767L11.2177 31.744L11.2734 32.1171L11.7248 32.0497L11.6692 31.6767ZM11.5084 28.3834V31.8632H11.8856V28.3834H11.5084ZM10.9572 28.572H11.697V28.1948H10.9572V28.572ZM10.7686 27.7193V28.3834H11.1458V27.7193H10.7686ZM11.697 27.5307H10.9572V27.9079H11.697V27.5307ZM11.5084 24.5677V27.7193H11.8856V24.5677H11.5084ZM13.0256 23.0504C12.1887 23.0504 11.5084 23.7307 11.5084 24.5677H11.8856C11.8856 23.9391 12.397 23.4276 13.0256 23.4276V23.0504ZM26.9744 23.0504H13.0256V23.4276H26.9744V23.0504ZM28.4917 24.5677C28.4917 23.7312 27.8114 23.0504 26.9744 23.0504V23.4276C27.603 23.4276 28.1145 23.9395 28.1145 24.5677H28.4917ZM28.4917 27.7193V24.5677H28.1145V27.7193H28.4917ZM29.2446 27.5307H28.3031V27.9079H29.2446V27.5307ZM29.4332 28.3834V27.7193H29.056V28.3834H29.4332ZM28.3031 28.572H29.2446V28.1948H28.3031V28.572ZM28.4917 31.8868V28.3834H28.1145V31.8868H28.4917ZM28.7746 31.7433L28.3214 31.6991L28.2848 32.0745L28.738 32.1187L28.7746 31.7433ZM18.4445 28.6191C18.4445 27.7617 19.1427 27.0635 20.0001 27.0635V26.6863C18.9343 26.6863 18.0672 27.5534 18.0672 28.6191H18.4445ZM20.0001 30.1748C19.1423 30.1748 18.4445 29.4766 18.4445 28.6191H18.0672C18.0672 29.6849 18.9339 30.552 20.0001 30.552V30.1748ZM21.5558 28.6191C21.5558 29.4766 20.8579 30.1748 20.0001 30.1748V30.552C21.0663 30.552 21.933 29.6849 21.933 28.6191H21.5558ZM20.0001 27.0635C20.8575 27.0635 21.5558 27.7617 21.5558 28.6191H21.933C21.933 27.5534 21.0659 26.6863 20.0001 26.6863V27.0635ZM19.9999 29.5102C19.5087 29.5102 19.1088 29.1104 19.1088 28.6191H18.7316C18.7316 29.3187 19.3003 29.8874 19.9999 29.8874V29.5102ZM20.8915 28.6191C20.8915 29.1103 20.4913 29.5102 19.9999 29.5102V29.8874C20.6994 29.8874 21.2687 29.3188 21.2687 28.6191H20.8915ZM19.9999 27.7276C20.4912 27.7276 20.8915 28.1279 20.8915 28.6191H21.2687C21.2687 27.9195 20.6995 27.3504 19.9999 27.3504V27.7276ZM19.1088 28.6191C19.1088 28.1278 19.5088 27.7276 19.9999 27.7276V27.3504C19.3002 27.3504 18.7316 27.9196 18.7316 28.6191H19.1088Z" fill="#595959"/>
<path d="M22.8586 28.4153L20.218 31.3741L17.5775 28.4159C17.0044 27.7734 17.0156 26.7286 17.6098 26.1021C17.8629 25.8339 18.2019 25.6868 18.5641 25.6868C19.3225 25.6868 19.6635 26.1946 20.218 26.8158C20.7577 26.2112 21.1051 25.6868 21.8719 25.6868C22.2342 25.6868 22.5731 25.8339 22.8268 26.1015C23.4194 26.7268 23.4332 27.7716 22.8586 28.4153Z" fill="#A0D9E3" stroke="#595959" stroke-width="0.913704"/>
</svg>
