<svg width="40" height="40" viewBox="0 0 40 40" fill="none" xmlns="http://www.w3.org/2000/svg">
<path fill-rule="evenodd" clip-rule="evenodd" d="M13.4479 10.1034C12.491 10.2026 11.6388 10.5636 10.8947 11.182C10.6612 11.3761 10.3775 11.6727 10.1779 11.9301C9.02891 13.4145 8.83252 15.4681 9.67812 17.1542C9.74359 17.2839 9.84943 17.4759 9.89198 17.5413C9.90507 17.562 9.89962 17.5675 9.80033 17.6275C8.84997 18.2055 8.00764 19.018 7.37916 19.9625C6.85106 20.7554 6.48227 21.5929 6.24768 22.5298C6.14621 22.9311 6.08074 23.3172 6.03164 23.7807C6.00873 24.0032 6.00764 24.0501 6.00436 25.794L6 27.5804H9.20895H12.4168V28.7474V29.9143H20L27.5832 29.9143V28.7474V27.5804H30.7911H34L33.9956 25.7885C33.9913 23.8418 33.9935 23.9192 33.928 23.4197C33.7207 21.8558 33.0977 20.3965 32.1364 19.2209C31.7632 18.765 31.2875 18.3069 30.8292 17.9634C30.7212 17.8827 30.6296 17.814 30.6252 17.8096C30.6208 17.8053 30.6405 17.766 30.6688 17.7213C30.8238 17.4792 30.9765 17.1803 31.0889 16.9033C31.6388 15.539 31.5854 13.9707 30.9427 12.6554C30.335 11.4099 29.2668 10.5156 28.0142 10.2026C27.5025 10.075 26.8991 10.051 26.3644 10.1361C25.018 10.352 23.8211 11.2616 23.1489 12.579C23.0671 12.7394 22.9504 13.0066 22.9111 13.1211C22.8991 13.156 22.886 13.1843 22.8816 13.1843C22.8783 13.1843 22.8576 13.1723 22.8369 13.1582C22.6743 13.0491 22.3295 12.867 22.1004 12.7721C20.8893 12.266 19.5014 12.302 18.311 12.8702L18.2095 12.9193L18.1495 12.7928C17.7774 12.0108 17.1697 11.3172 16.4321 10.8362C15.8451 10.4534 15.2024 10.2157 14.4899 10.1186C14.2706 10.0892 13.6694 10.0794 13.4479 10.1034ZM14.1023 11.2586C14.7155 11.2825 15.3887 11.5192 15.9168 11.8966C16.4558 12.2815 16.8868 12.8127 17.152 13.4169C17.188 13.4987 17.2174 13.5717 17.2174 13.5783C17.2174 13.5848 17.1378 13.6688 17.0396 13.7659C16.6239 14.1792 16.3413 14.5707 16.0805 15.0986C15.775 15.7192 15.6059 16.3866 15.5819 17.0704C15.5699 17.4216 15.5917 17.8011 15.6397 18.0738L15.6539 18.1578L15.6201 18.1785C15.4804 18.2646 15.1771 18.3977 14.9643 18.4664C14.5966 18.5842 14.2889 18.6322 13.8896 18.6311C13.4924 18.63 13.164 18.5776 12.8072 18.4588C12.0772 18.2156 11.4597 17.7521 11.0014 17.1042C10.4798 16.367 10.2442 15.4291 10.35 14.5042C10.553 12.72 11.991 11.336 13.7259 11.2553C13.8186 11.2509 13.9103 11.2487 13.9277 11.2509C13.9463 11.252 14.0249 11.2553 14.1023 11.2586ZM27.2123 11.2583C27.7753 11.2823 28.3972 11.5233 28.8871 11.905C29.305 12.2311 29.6803 12.7045 29.9084 13.192C30.1081 13.6162 30.2204 14.0219 30.2804 14.5203C30.299 14.6785 30.299 15.2019 30.2794 15.3601C30.1964 16.0559 29.9968 16.6252 29.6531 17.1432C29.1053 17.9677 28.3088 18.4858 27.3977 18.6123C27.2112 18.6374 26.8424 18.6374 26.6558 18.6123C26.0982 18.5349 25.6018 18.32 25.1381 17.9557L25.0279 17.8685L25.0355 17.7594C25.1097 16.7626 24.9558 15.9152 24.5521 15.0983C24.3666 14.7232 24.1626 14.4058 23.9269 14.1266L23.8527 14.0383L23.8898 13.8943C24.1593 12.855 24.8347 11.9956 25.7229 11.5593C26.0349 11.4066 26.3001 11.3237 26.6394 11.2747C26.7322 11.2616 26.9995 11.2452 27.054 11.2507C27.0726 11.2518 27.1435 11.255 27.2123 11.2583ZM20.6493 13.6003C21.1938 13.6472 21.7513 13.8435 22.2249 14.1554C22.7628 14.5099 23.185 14.981 23.4742 15.5514C23.6979 15.992 23.8288 16.4403 23.8735 16.9256C23.8888 17.0881 23.8888 17.4622 23.8735 17.629C23.7699 18.7436 23.1807 19.7503 22.2696 20.3675C21.7982 20.6871 21.2669 20.8823 20.6766 20.951C20.5293 20.9685 20.1037 20.9685 19.9564 20.951C19.3662 20.8823 18.8348 20.6871 18.3634 20.3675C17.4524 19.7503 16.8632 18.7436 16.7595 17.629C16.7442 17.4622 16.7442 17.0881 16.7595 16.9256C16.8653 15.7859 17.4676 14.776 18.4082 14.1554C18.8828 13.8424 19.4371 13.6483 19.9892 13.5992C20.2347 13.5785 20.3907 13.5785 20.6493 13.6003ZM10.7514 18.5754C11.237 19.0171 11.7869 19.3432 12.3968 19.5515C13.5403 19.942 14.7864 19.8733 15.8786 19.3585C15.9429 19.328 15.9986 19.3029 16.0008 19.3029C16.004 19.3029 16.0291 19.3531 16.0586 19.4152C16.1131 19.5308 16.2648 19.8078 16.303 19.8624C16.315 19.8798 16.3216 19.8973 16.3161 19.9016C16.3106 19.906 16.2626 19.9354 16.2081 19.9682C15.5229 20.3771 14.8125 20.9966 14.2681 21.6619C13.2883 22.8572 12.6685 24.3142 12.4765 25.8793C12.4634 25.9862 12.4285 26.3657 12.4274 26.406C12.4274 26.4104 11.2424 26.4126 9.79564 26.4115L7.16279 26.4082L7.16388 25.3503C7.16388 24.2848 7.16934 24.1027 7.20753 23.7689C7.44212 21.7131 8.50049 19.918 10.1361 18.799C10.2539 18.7183 10.6336 18.4849 10.6467 18.4849C10.6489 18.4849 10.6958 18.5253 10.7514 18.5754ZM29.9411 18.7585C30.4365 19.0998 30.9406 19.5797 31.3345 20.0868C32.1364 21.1175 32.6482 22.4033 32.7922 23.7469C32.8315 24.1101 32.8358 24.2737 32.8358 25.3447L32.8369 26.408L30.2052 26.4113L27.5745 26.4135L27.568 26.3513C27.5647 26.3164 27.5592 26.2488 27.556 26.2008C27.4949 25.3839 27.2734 24.47 26.9471 23.6869C26.371 22.3041 25.4109 21.0913 24.239 20.2624C24.1855 20.2243 24.1364 20.1894 24.1321 20.185C24.1266 20.1806 24.1735 20.0999 24.2368 20.005C24.4092 19.7444 24.5183 19.5448 24.6394 19.27C24.6809 19.1751 24.7191 19.102 24.7256 19.1042C24.7333 19.1064 24.7715 19.1282 24.8107 19.1544C25.017 19.2863 25.3541 19.4543 25.5887 19.5415C26.6373 19.932 27.7993 19.8807 28.7911 19.4008C28.8882 19.354 29.017 19.2874 29.0781 19.2536C29.2919 19.1336 29.6182 18.9013 29.7818 18.753C29.8124 18.7258 29.8418 18.7039 29.8484 18.7029C29.8549 18.7029 29.8964 18.7279 29.9411 18.7585Z" fill="#595959"/>
<path fill-rule="evenodd" clip-rule="evenodd" d="M17.1947 20.9309C17.6933 21.3737 18.2356 21.6911 18.8357 21.8917C19.7981 22.2156 20.8346 22.2156 21.797 21.8917C22.3044 21.7216 22.8183 21.4402 23.2329 21.1054C23.282 21.0661 23.3136 21.0476 23.3256 21.0531C23.3562 21.064 23.6759 21.293 23.8046 21.3944C24.2465 21.7434 24.7015 22.2124 25.0299 22.6563C25.2667 22.9758 25.4457 23.2637 25.6311 23.6269C26.0523 24.4492 26.2847 25.2497 26.3895 26.2335C26.4058 26.384 26.4091 26.5726 26.4124 27.5782L26.4167 28.7473H19.9999H13.5831L13.5875 27.5836C13.5919 26.3262 13.5919 26.3283 13.6562 25.8736C13.8024 24.8397 14.1723 23.8527 14.7353 22.9943C15.2405 22.2222 15.9148 21.5449 16.6579 21.0629C16.755 20.9996 17.0561 20.8186 17.0638 20.8186C17.0659 20.8186 17.1249 20.8687 17.1947 20.9309Z" fill="#A0D9E3"/>
</svg>
