<svg width="40" height="40" viewBox="0 0 40 40" fill="none" xmlns="http://www.w3.org/2000/svg">
<path fill-rule="evenodd" clip-rule="evenodd" d="M31.19 12.8577L28.5615 16.6116C28.1432 17.2073 27.3954 17.4755 26.6939 17.2814L15.7948 32.8469C14.5246 34.661 12.0243 35.1019 10.2102 33.8316C8.39616 32.5614 7.95529 30.0611 9.22551 28.2471L20.1246 12.6816C19.7022 12.0887 19.6985 11.2943 20.1153 10.6975L22.7438 6.94358C23.1716 6.33427 23.9428 6.06916 24.6549 6.28656C25.6375 5.30021 27.1866 5.16202 28.3284 5.95886L30.2053 7.27311C31.3448 8.07339 31.7449 9.57647 31.1541 10.8373C31.6017 11.4322 31.6162 12.2473 31.19 12.8577ZM29.5479 8.21246L27.671 6.89822C27.0742 6.48145 26.2797 6.48517 25.6868 6.90751L30.2178 10.0801C30.4119 9.37854 30.1437 8.63073 29.5479 8.21246ZM10.8667 32.8935C9.57252 31.9852 9.25786 30.2007 10.1633 28.9045L11.4775 27.0276L14.7622 29.3275C15.0213 29.509 15.3785 29.446 15.56 29.1869L22.7883 18.8637C22.9698 18.6045 22.9068 18.2474 22.6477 18.0659L19.363 15.766L21.0058 13.4198L25.6982 16.7054L14.8556 32.1902C13.9473 33.4843 12.1628 33.799 10.8667 32.8935ZM26.8249 16.0959C27.0842 16.277 27.4411 16.214 27.6227 15.9552L30.2512 12.2013C30.4323 11.9421 30.3694 11.5852 30.1106 11.4035L29.6413 11.075L27.67 13.8904L26.7315 13.2333L28.7029 10.4178L27.7644 9.76072L25.793 12.5761L24.8545 11.919L26.8259 9.10359L25.8874 8.44647L23.9161 11.2619L22.9776 10.6048L24.949 7.78935L24.4797 7.46078C24.2205 7.2797 23.8636 7.34263 23.6819 7.60146L21.0534 11.3553C20.8724 11.6146 20.9353 11.9715 21.1941 12.1531L26.8249 16.0959Z" fill="#595959"/>
<path d="M18.7064 16.7048L21.5218 18.6762L14.9506 28.0609L12.1352 26.0895L18.7064 16.7048Z" fill="#A0D9E3"/>
</svg>
