<svg width="40" height="40" viewBox="0 0 40 40" fill="none" xmlns="http://www.w3.org/2000/svg">
<path fill-rule="evenodd" clip-rule="evenodd" d="M6.90955 7.66687C6.90955 7.34091 7.17379 7.07666 7.49976 7.07666H10.9922C11.2608 7.07666 11.4955 7.25801 11.5633 7.5179L16.2559 25.5073H31.5965C31.9224 25.5073 32.1867 25.7716 32.1867 26.0975C32.1867 26.4235 31.9224 26.6877 31.5965 26.6877H15.7999C15.5313 26.6877 15.2966 26.5064 15.2288 26.2465L10.5362 8.25708H7.49976C7.17379 8.25708 6.90955 7.99284 6.90955 7.66687Z" fill="#595959"/>
<path fill-rule="evenodd" clip-rule="evenodd" d="M15.8966 11.0772C15.8981 10.7512 16.1636 10.4882 16.4896 10.4898L32.503 10.5649C32.6915 10.5658 32.8683 10.6567 32.9787 10.8096C33.0891 10.9625 33.1198 11.1589 33.0613 11.3382L29.4105 22.5262C29.3312 22.7691 29.1048 22.9334 28.8494 22.9334H15.4566C15.1306 22.9334 14.8664 22.6691 14.8664 22.3431C14.8664 22.0172 15.1306 21.7529 15.4566 21.7529H28.4211L31.688 11.7415L16.484 11.6702C16.1581 11.6686 15.8951 11.4032 15.8966 11.0772Z" fill="#595959"/>
<path d="M20.6075 30.1931C20.6075 31.7011 19.3775 32.9236 17.8603 32.9236C16.343 32.9236 15.113 31.7011 15.113 30.1931C15.113 28.6851 16.343 27.4626 17.8603 27.4626C19.3775 27.4626 20.6075 28.6851 20.6075 30.1931Z" fill="#A0D9E3"/>
<path fill-rule="evenodd" clip-rule="evenodd" d="M17.8603 31.7432C18.7324 31.7432 19.4271 31.0424 19.4271 30.1931C19.4271 29.3439 18.7324 28.6431 17.8603 28.6431C16.9881 28.6431 16.2935 29.3439 16.2935 30.1931C16.2935 31.0424 16.9881 31.7432 17.8603 31.7432ZM17.8603 32.9236C19.3775 32.9236 20.6075 31.7011 20.6075 30.1931C20.6075 28.6851 19.3775 27.4626 17.8603 27.4626C16.343 27.4626 15.113 28.6851 15.113 30.1931C15.113 31.7011 16.343 32.9236 17.8603 32.9236Z" fill="#595959"/>
<path d="M31.5965 30.1931C31.5965 31.7011 30.3665 32.9236 28.8492 32.9236C27.332 32.9236 26.102 31.7011 26.102 30.1931C26.102 28.6851 27.332 27.4626 28.8492 27.4626C30.3665 27.4626 31.5965 28.6851 31.5965 30.1931Z" fill="#A0D9E3"/>
<path fill-rule="evenodd" clip-rule="evenodd" d="M28.8492 31.7432C29.7214 31.7432 30.416 31.0424 30.416 30.1931C30.416 29.3439 29.7214 28.6431 28.8492 28.6431C27.9771 28.6431 27.2824 29.3439 27.2824 30.1931C27.2824 31.0424 27.9771 31.7432 28.8492 31.7432ZM28.8492 32.9236C30.3665 32.9236 31.5965 31.7011 31.5965 30.1931C31.5965 28.6851 30.3665 27.4626 28.8492 27.4626C27.332 27.4626 26.102 28.6851 26.102 30.1931C26.102 31.7011 27.332 32.9236 28.8492 32.9236Z" fill="#595959"/>
<path fill-rule="evenodd" clip-rule="evenodd" d="M18.6436 18.589C18.6436 18.263 18.9079 17.9988 19.2338 17.9988H26.1019C26.4279 17.9988 26.6921 18.263 26.6921 18.589C26.6921 18.915 26.4279 19.1792 26.1019 19.1792H19.2338C18.9079 19.1792 18.6436 18.915 18.6436 18.589Z" fill="#595959"/>
<path fill-rule="evenodd" clip-rule="evenodd" d="M17.5731 15.1757C17.5731 14.8497 17.8374 14.5854 18.1633 14.5854H27.8595C28.1854 14.5854 28.4497 14.8497 28.4497 15.1757C28.4497 15.5016 28.1854 15.7659 27.8595 15.7659H18.1633C17.8374 15.7659 17.5731 15.5016 17.5731 15.1757Z" fill="#595959"/>
</svg>
