<svg width="40" height="40" viewBox="0 0 40 40" fill="none" xmlns="http://www.w3.org/2000/svg">
<path fill-rule="evenodd" clip-rule="evenodd" d="M26.959 8.50005C28.9409 8.50005 30.7512 9.25227 32.0563 10.6182C33.3097 11.9299 34 13.6898 34 15.5736C34 20.4116 28.8692 24.5345 21.8795 30.1513C21.3814 30.5516 20.8739 30.9594 20.3581 31.3756C20.2554 31.4586 20.1277 31.5 20 31.5C19.8723 31.5 19.7446 31.4586 19.6419 31.3756C19.1197 30.9543 18.6059 30.5414 18.1017 30.1363C11.136 24.5397 6 20.4132 6 15.5736C6 11.7316 8.89264 8.5 13.041 8.5C15.2083 8.5 17.1858 9.28221 18.7599 10.7622C19.3073 11.2768 19.7164 11.7909 20 12.1988C20.2836 11.7908 20.6927 11.2767 21.2401 10.7622C22.8142 9.28227 24.7918 8.50005 26.959 8.50005ZM18.793 29.3463C19.1896 29.665 19.5922 29.9885 20.0002 30.3172C20.4983 29.9159 20.9915 29.5205 21.4778 29.1306C27.7622 24.0926 32.9064 19.9685 32.9065 15.5737C32.9065 12.1217 30.3497 9.51855 26.9592 9.51855C25.0766 9.51855 23.423 10.1696 22.0444 11.4536C20.9941 12.4319 20.504 13.4302 20.4992 13.4402C20.4108 13.6228 20.2154 13.7406 20.0004 13.7406H19.9994C19.7843 13.7402 19.5892 13.6228 19.5012 13.4402C19.4964 13.4302 19.0063 12.4319 17.956 11.4536C16.5773 10.1696 14.9238 9.51855 13.0412 9.51855C9.65068 9.51855 7.09393 12.1217 7.09393 15.5737C7.09393 19.9455 12.0874 23.958 18.793 29.3463Z" fill="#595959"/>
<path d="M25.2543 18.2549H22.1893V15.4049C22.1893 15.1238 21.9443 14.896 21.642 14.896H18.3582C18.0559 14.896 17.8109 15.1238 17.8109 15.4049V18.2549H14.7459C14.4436 18.2549 14.1986 18.4828 14.1986 18.7639V21.8175C14.1986 22.0985 14.4436 22.3264 14.7459 22.3264H17.8109V25.1764C17.8109 25.4575 18.0559 25.6853 18.3582 25.6853H21.642C21.9443 25.6853 22.1893 25.4575 22.1893 25.1764V22.3264H25.2543C25.5566 22.3264 25.8016 22.0985 25.8016 21.8175V18.7639C25.8016 18.4828 25.5566 18.2549 25.2543 18.2549Z" fill="#595959"/>
<path d="M24.7067 21.3082H21.6418C21.3395 21.3082 21.0945 21.5361 21.0945 21.8172V24.6672H18.9052V21.8172C18.9052 21.5361 18.6602 21.3082 18.3579 21.3082H15.293V19.2725H18.3579C18.6602 19.2725 18.9052 19.0447 18.9052 18.7636V15.9136H21.0945V18.7636C21.0945 19.0447 21.3395 19.2725 21.6418 19.2725H24.7067V21.3082Z" fill="#A0D9E3"/>
</svg>
