<svg width="40" height="40" viewBox="0 0 40 40" fill="none" xmlns="http://www.w3.org/2000/svg">
<path d="M13.8883 25.05C13.8883 26.2372 12.9259 27.1996 11.7387 27.1996C10.5515 27.1996 9.58911 26.2372 9.58911 25.05C9.58911 23.8628 10.5515 22.9004 11.7387 22.9004C12.9259 22.9004 13.8883 23.8628 13.8883 25.05Z" fill="#A0D9E3"/>
<path d="M30.9125 24.8781C30.9125 26.0653 29.9501 27.0277 28.7629 27.0277C27.5757 27.0277 26.6133 26.0653 26.6133 24.8781C26.6133 23.6909 27.5757 22.7285 28.7629 22.7285C29.9501 22.7285 30.9125 23.6909 30.9125 24.8781Z" fill="#A0D9E3"/>
<path d="M26.3669 24.629H14.208V23.2854H26.3669V24.629ZM9.36294 24.629H8.80205C5.09579 24.629 4 22.8886 4 20.6259C4 18.9485 4.67613 17.0159 5.24934 15.3775C5.37383 15.0216 5.49311 14.6807 5.61378 14.3126C5.81992 13.6838 6.09788 13.0738 6.50591 12.6024C6.96839 12.068 7.57153 11.7227 8.37693 11.7227H23.1171L23.4582 11.8171L33.5438 17.7685C33.7087 17.8657 33.8766 17.9565 34.0417 18.0457C35.0623 18.5972 36 19.1039 36 20.4712V21.8317C36 22.6015 35.6854 23.301 35.1787 23.8077C34.672 24.3144 33.9725 24.629 33.2027 24.629H31.2119V23.2854H33.2027C33.6017 23.2854 33.965 23.1216 34.2288 22.8577C34.4926 22.5939 34.6565 22.2306 34.6565 21.8317V20.4712C34.6565 19.9019 34.058 19.5785 33.4066 19.2265C33.2258 19.1288 33.0419 19.0294 32.8616 18.923L22.936 13.0662H8.3769C8.01325 13.0662 7.73565 13.2282 7.51876 13.4788C7.24739 13.7923 7.04705 14.2452 6.88904 14.7272C6.7882 15.0348 6.65414 15.4179 6.51408 15.8183C5.977 17.3534 5.34349 19.1642 5.34349 20.6259C5.34349 22.1292 6.1327 23.2854 8.80201 23.2854H9.3629V24.629L9.36294 24.629Z" fill="#595959"/>
<path d="M11.7855 21.678C12.6965 21.678 13.5215 22.0474 14.1186 22.6445C14.7158 23.2416 15.0852 24.0666 15.0852 24.9777C15.0852 25.8888 14.7158 26.7137 14.1186 27.3109C13.5215 27.908 12.6966 28.2774 11.7855 28.2774C10.8743 28.2774 10.0494 27.908 9.45229 27.3109C8.85513 26.7137 8.48578 25.8888 8.48578 24.9777C8.48578 24.0666 8.85513 23.2417 9.45229 22.6445C10.0494 22.0474 10.8743 21.678 11.7855 21.678ZM13.1687 23.5944C12.8148 23.2405 12.3257 23.0215 11.7855 23.0215C11.2452 23.0215 10.7561 23.2404 10.4022 23.5944C10.0483 23.9483 9.8293 24.4374 9.8293 24.9777C9.8293 25.5179 10.0483 26.007 10.4022 26.361C10.7561 26.7149 11.2452 26.9339 11.7855 26.9339C12.3257 26.9339 12.8148 26.7149 13.1687 26.361C13.5227 26.007 13.7416 25.5179 13.7416 24.9777C13.7416 24.4374 13.5227 23.9484 13.1687 23.5944Z" fill="#595959"/>
<path d="M28.7894 21.678C29.7005 21.678 30.5254 22.0474 31.1226 22.6445C31.7198 23.2416 32.0891 24.0666 32.0891 24.9777C32.0891 25.8888 31.7198 26.7137 31.1226 27.3109C30.5254 27.908 29.7005 28.2774 28.7894 28.2774C27.8783 28.2774 27.0534 27.908 26.4563 27.3109C25.8591 26.7137 25.4897 25.8888 25.4897 24.9777C25.4897 24.0666 25.8591 23.2417 26.4563 22.6445C27.0534 22.0473 27.8783 21.678 28.7894 21.678ZM30.1727 23.5944C29.8188 23.2405 29.3297 23.0215 28.7894 23.0215C28.2492 23.0215 27.7601 23.2404 27.4062 23.5944C27.0522 23.9483 26.8333 24.4374 26.8333 24.9777C26.8333 25.5179 27.0522 26.007 27.4062 26.361C27.7601 26.7149 28.2492 26.9339 28.7894 26.9339C29.3297 26.9339 29.8187 26.7149 30.1727 26.361C30.5266 26.007 30.7456 25.5179 30.7456 24.9777C30.7456 24.4374 30.5266 23.9483 30.1727 23.5944Z" fill="#595959"/>
<path d="M35.3279 21.1431C35.6989 21.1431 35.9997 20.8423 35.9997 20.4713C35.9997 20.1003 35.6989 19.7996 35.3279 19.7996H32.7745C32.4036 19.7996 32.1028 20.1003 32.1028 20.4713C32.1028 20.8423 32.4036 21.1431 32.7745 21.1431H35.3279Z" fill="#595959"/>
<path d="M5.40112 16.4414H30.96V17.7849H5.40112V16.4414Z" fill="#595959"/>
<path d="M20.5262 12.3945V17.1132H19.1826V12.3945H20.5262Z" fill="#595959"/>
<path d="M15.0852 12.3945V17.1132H13.7416V12.3945H15.0852Z" fill="#595959"/>
</svg>
