<svg width="40" height="40" viewBox="0 0 40 40" fill="none" xmlns="http://www.w3.org/2000/svg">
<path fill-rule="evenodd" clip-rule="evenodd" d="M34.3765 11.5H35.5V18.8091L26.4924 23.3125C26.4976 23.3625 26.5 23.4121 26.5 23.4624C26.5 24.2981 25.8291 24.9771 24.998 24.9966C24.9885 25.8201 24.3215 26.4875 23.498 26.498C23.4876 27.321 22.821 27.9875 21.998 27.998C21.9875 28.8274 21.3105 29.5 20.4785 29.5H20.386C20.0149 29.5 19.6575 29.3645 19.3799 29.1201L18.937 28.729C18.6794 28.9026 18.373 29 18.0605 29C17.219 29 16.5354 28.3291 16.5056 27.4944C15.6899 27.4656 15.0344 26.8101 15.0056 25.9944C14.1899 25.9656 13.5344 25.3101 13.5056 24.4944C12.6865 24.4656 12.0291 23.8059 12.0044 22.9861L10.4966 22.0811L10.377 22.5H9.41895L4.5 20.8606V10.5H6.1355L12.6622 14.2385L12.4122 15.1998C12.4122 15.1998 15.8657 14.3982 16.9097 14.3982C17.9415 14.551 24.4267 16.3893 24.4267 16.3893L34.3765 11.5ZM13.164 22.5431C13.0595 22.6476 12.9999 22.7921 12.9999 22.9396C12.9999 23.2487 13.2514 23.5001 13.5604 23.5001C13.7079 23.5001 13.8524 23.4406 13.9569 23.3361L14.8358 22.4572C14.9403 22.3527 14.9999 22.2082 14.9999 22.0607C14.9999 21.7516 14.7484 21.5001 14.4394 21.5001C14.2919 21.5001 14.1474 21.5597 14.0429 21.6642L13.164 22.5431ZM14.5 24.4393C14.5 24.2918 14.5596 24.1473 14.6641 24.0428L15.543 23.1639C15.6475 23.0594 15.792 22.9998 15.9395 22.9998C16.2486 22.9998 16.5 23.2513 16.5 23.5604C16.5 23.7078 16.4405 23.8524 16.336 23.9569L15.4571 24.8358C15.3526 24.9403 15.2081 24.9998 15.0606 24.9998C14.7515 24.9998 14.5 24.7484 14.5 24.4393ZM16.1643 25.5429C16.0598 25.6474 16.0002 25.792 16.0002 25.9394C16.0002 26.2485 16.2517 26.5 16.5607 26.5C16.7082 26.5 16.8527 26.4404 16.9572 26.3359L17.8361 25.457C17.9406 25.3525 18.0002 25.208 18.0002 25.0605C18.0002 24.7514 17.7487 24.5 17.4396 24.5C17.2922 24.5 17.1477 24.5595 17.0432 24.664L16.1643 25.5429ZM18.0604 28.0001C17.7513 28.0001 17.4999 27.7487 17.4999 27.4396C17.4999 27.2921 17.5594 27.1476 17.6639 27.0431L18.5428 26.1642C18.6473 26.0597 18.7919 26.0001 18.9393 26.0001C19.2484 26.0001 19.4999 26.2516 19.4999 26.5607C19.4999 26.7081 19.4403 26.8527 19.3358 26.9572L18.4569 27.8361C18.3524 27.9406 18.2079 28.0001 18.0604 28.0001ZM20.386 28.4998H20.4786C20.7662 28.4998 21 28.2659 21 27.9783C21 27.8228 20.9314 27.6768 20.8125 27.5776L20.358 27.1992C20.2811 27.3704 20.1771 27.5298 20.043 27.6638L19.6675 28.0393L20.0416 28.3691C20.1365 28.4534 20.2586 28.4998 20.386 28.4998ZM24.9626 24H24.8762C24.7507 24 24.6282 23.9556 24.5322 23.875L21.8208 21.6155L21.1802 22.384L23.8132 24.5779C23.9316 24.677 24.0002 24.823 24.0002 24.9785C24.0002 25.2661 23.7663 25.5 23.4787 25.5H23.3696C23.2483 25.5 23.1296 25.457 23.0361 25.3789L20.3203 23.116L19.6797 23.8845L22.3127 26.0786C22.4316 26.177 22.5002 26.323 22.5002 26.4785C22.5002 26.7661 22.2663 27 21.9787 27C21.7868 27 21.5998 26.9319 21.4526 26.8096L20.3366 25.8794C20.0908 25.377 19.5857 25.0266 18.9941 25.0056C18.9653 24.19 18.3098 23.5344 17.4941 23.5056C17.4653 22.69 16.8098 22.0344 15.9941 22.0056C15.9648 21.1709 15.2812 20.5 14.4397 20.5C14.0288 20.5 13.6267 20.6665 13.3362 20.957L12.4573 21.836C12.4085 21.8847 12.3675 21.9396 12.3265 21.9945L12.3171 22.0071L10.7812 21.0855L12.1277 16.3731L15.5031 15.6226C16.3886 15.4246 17.3222 15.4675 18.1858 15.7439L18.9223 15.9795L16.4253 17.228C15.8547 17.5139 15.5002 18.0879 15.5002 18.7261V18.825C15.5002 19.7485 16.2517 20.5 17.1753 20.5C17.4787 20.5 17.7773 20.4175 18.0368 20.261L19.8987 19.1445C20.2727 18.9204 20.7746 18.9695 21.0976 19.26L25.3222 23.062C25.4353 23.1646 25.5002 23.3101 25.5002 23.4624C25.5002 23.759 25.2593 24 24.9626 24ZM26.0767 22.4033L34.5002 18.1911V12.5651L25.1238 17.5002L24.3628 17.4812L21.2207 16.5837C20.7063 16.4357 20.1396 16.4892 19.6624 16.7282L16.8733 18.1228C16.6433 18.2377 16.5002 18.4687 16.5002 18.7263V18.8251C16.5002 19.1977 16.8027 19.5002 17.1753 19.5002C17.2974 19.5002 17.4167 19.4672 17.5212 19.4042L19.3838 18.2873C19.6973 18.0993 20.0552 18.0002 20.4197 18.0002C20.9182 18.0002 21.3967 18.1838 21.7668 18.5178L25.9907 22.3198C26.0208 22.3466 26.0493 22.3742 26.0767 22.4033Z" fill="#595959"/>
<path d="M5.50012 11.5H5.86462L9.46057 13.5974L7.64612 20.855L5.50012 20.1394V11.5Z" fill="#A0D9E3"/>
<path d="M9.58148 21.4998L8.59735 21.1719L10.36 14.1218L11.5004 14.7869V14.9297L9.62347 21.4998H9.58148Z" fill="#A0D9E3"/>
</svg>
