<svg width="40" height="40" viewBox="0 0 40 40" fill="none" xmlns="http://www.w3.org/2000/svg">
<path fill-rule="evenodd" clip-rule="evenodd" d="M32.7063 15.3878C32.7063 13.2448 30.9691 11.5076 28.8261 11.5076H24.6043C23.1161 11.5076 21.9097 12.714 21.9097 14.2022V14.3818C21.9097 14.3818 24.0844 14.1706 24.0844 14.798C24.0844 15.0342 24.0789 17.0076 23.6162 17.6318C23.2599 18.1127 21.9097 17.8766 21.9097 17.8766V18.7282C21.9097 20.2164 23.1161 21.4228 24.6043 21.4228H28.8261C30.9691 21.4228 32.7063 19.6856 32.7063 17.5426V15.3878Z" fill="#A0D9E3"/>
<path d="M8.63826 14.5985C9.85952 11.1579 13.1328 8.84572 16.7826 8.84572C19.0931 8.84572 21.2663 9.74869 22.9008 11.3866C23.063 11.5492 23.2253 11.7205 23.3767 11.9037C23.5682 12.1346 23.91 12.1638 24.1393 11.972C24.3687 11.7801 24.399 11.4386 24.2075 11.2088C24.0344 11.0007 23.8494 10.8034 23.6645 10.6202C21.8266 8.77742 19.3819 7.76172 16.7826 7.76172C12.6753 7.76172 8.99306 10.3633 7.61928 14.2364C7.51868 14.5183 7.68913 14.4673 7.97038 14.5681C8.03095 14.5887 8.09153 14.5985 8.15211 14.5985C8.37494 14.5985 8.55929 14.8218 8.63826 14.5985Z" fill="#595959"/>
<path d="M10.7947 32.2384H20.5526C20.8518 32.2384 21.0947 31.9953 21.0947 31.6958V29.6113C21.0947 29.6113 23.2496 29.6113 23.487 29.6113C24.6829 29.6113 26.1223 28.2382 26.1223 27.0413L26.1167 24.5384C26.1167 24.5384 27.1381 22.9156 27.2337 22.5878C27.3164 22.3046 27.1239 22.2268 27.0727 22.1433L25.7862 21.4281C25.6257 21.1742 25.2896 21.0993 25.0381 21.2599C24.7854 21.4195 25.0193 21.6107 25.1797 21.8635L26.1621 22.5878C26.1621 22.5878 25.0381 24.2389 25.0381 24.5384V27.0413C25.0381 27.6392 24.0855 28.3268 23.487 28.3268C23.3743 28.3268 20.7109 28.3591 20.7109 28.3591C20.5461 28.3113 20.3672 28.3406 20.2306 28.4426C20.0918 28.5446 20.0105 28.7074 20.0105 28.8788V31.1533H11.3368V27.7612C11.3368 25.8687 10.76 24.0392 9.66716 22.4702C8.63066 21.0085 8.08422 19.2865 8.08422 17.4852C8.08422 17.1857 7.84136 16.9426 7.54211 16.9426C7.24287 16.9426 7.00001 17.1857 7.00001 17.4852C7.00001 18.4205 7.1309 19.3373 7.38638 20.2148C7.68459 21.2391 8.15255 22.2099 8.78028 23.0941C9.74197 24.4765 10.2526 26.0923 10.2526 27.7612V31.6958C10.2526 31.9953 10.4955 32.2384 10.7947 32.2384Z" fill="#595959"/>
<path d="M23.0388 21.8633H30.6283C31.9365 21.8633 33 20.6519 33 19.1641V13.7658C33 12.278 31.9365 11.0667 30.6283 11.0667H23.0388C22.2543 11.0667 21.6158 11.7933 21.6158 12.6861V14.3056C21.6158 14.6036 21.8283 14.3717 22.0902 14.3717C22.352 14.3717 22.5645 14.6036 22.5645 14.3056V12.6861C22.5645 12.3882 22.778 12.1463 23.0388 12.1463H30.6283C31.4129 12.1463 32.0513 12.8729 32.0513 13.7658V19.1641C32.0513 20.057 31.4129 20.7836 30.6283 20.7836H23.0388C22.778 20.7836 22.5645 20.5418 22.5645 20.2438V18.3662C22.5645 18.0683 22.352 17.8264 22.0902 17.8264C21.8283 17.8264 21.6158 18.0683 21.6158 18.3662V20.2438C21.6158 21.1366 22.2543 21.8633 23.0388 21.8633Z" fill="#595959"/>
<path fill-rule="evenodd" clip-rule="evenodd" d="M23.1388 18.4113H8.56187C7.70079 18.4113 7.00006 17.7786 7.00006 17.0011V15.1209C7.00006 14.3434 7.70079 13.7107 8.56187 13.7107H23.1388C23.9999 13.7107 24.7006 14.3434 24.7006 15.1209V17.0011C24.7006 17.7786 23.9999 18.4113 23.1388 18.4113ZM23.6158 15.2188C23.6158 14.9863 23.3828 14.7977 23.098 14.7977H8.60175C8.317 14.7977 8.08402 14.9863 8.08402 15.2188V16.9031C8.08402 17.1356 8.317 17.3242 8.60175 17.3242H23.098C23.3828 17.3242 23.6158 17.1356 23.6158 16.9031V15.2188Z" fill="#595959"/>
<path d="M29.2172 21.8633C29.5213 21.8633 29.7681 21.6214 29.7681 21.3234V11.6065C29.7681 11.3085 29.5213 11.0667 29.2172 11.0667C28.9132 11.0667 28.6664 11.3085 28.6664 11.6065V21.3234C28.6664 21.6214 28.9132 21.8633 29.2172 21.8633Z" fill="#595959"/>
</svg>
