<svg width="40" height="40" viewBox="0 0 40 40" fill="none" xmlns="http://www.w3.org/2000/svg">
<path fill-rule="evenodd" clip-rule="evenodd" d="M30.6784 31.9116H9.32201C8.43159 31.9116 7.71021 31.1678 7.71021 30.2501V14.1063C7.71021 13.1882 8.43159 12.4448 9.32201 12.4448H30.6784C31.5684 12.4448 32.2898 13.1882 32.2898 14.1063V30.2501C32.2898 31.1678 31.5684 31.9116 30.6784 31.9116Z" stroke="#595959" stroke-width="1.0629" stroke-linecap="square"/>
<path d="M16.3461 12.4445V9.51947C16.3461 8.72901 16.9952 8.08862 17.7954 8.08862H22.2042C23.0044 8.08862 23.6535 8.72901 23.6535 9.51947V9.91427" stroke="#595959" stroke-width="1.0629" stroke-linecap="square"/>
<path d="M7.71021 16.9747H29.6325" stroke="#595959" stroke-width="1.0629" stroke-linecap="square"/>
<path fill-rule="evenodd" clip-rule="evenodd" d="M23.6448 23.498H21.542V21.3088H19.104V23.498H17.0016V26.0367H19.104V28.2263H21.542V26.0367H23.6448V23.498Z" fill="#A0D9E3" stroke="#595959" stroke-width="1.0629" stroke-linecap="square"/>
<path d="M11.0316 20.3416H11.6959" stroke="#595959" stroke-width="1.0629" stroke-linecap="square"/>
<path d="M11.0316 28.8504H11.6959" stroke="#595959" stroke-width="1.0629" stroke-linecap="square"/>
<path d="M28.9682 20.3416H29.6325" stroke="#595959" stroke-width="1.0629" stroke-linecap="square"/>
<path d="M28.9682 28.8504H29.6325" stroke="#595959" stroke-width="1.0629" stroke-linecap="square"/>
</svg>
