<svg width="44" height="41" viewBox="0 0 44 41" fill="none" xmlns="http://www.w3.org/2000/svg">
<path fill-rule="evenodd" clip-rule="evenodd" d="M15.4815 0H28.5186C30.3591 0 31.8511 1.49205 31.8511 3.33259V5.85037H12.1489V3.33259C12.1489 1.49205 13.641 0 15.4815 0ZM28.6402 1.78098L28.5185 1.7763H15.4815C14.622 1.7763 13.9252 2.47307 13.9252 3.33259V4.07408H30.0748V3.33259C30.0748 2.514 29.4428 1.84303 28.6402 1.78098Z" fill="#595959"/>
<path fill-rule="evenodd" clip-rule="evenodd" d="M44 7.40672C44 5.60668 42.5408 4.14746 40.7407 4.14746H3.25926C1.45922 4.14746 0 5.60668 0 7.40672V17.1845C0 18.9845 1.45922 20.4438 3.25926 20.4438H40.7407C42.5408 20.4438 44 18.9845 44 17.1845V7.40672ZM3.25926 5.92374H40.7407L40.8624 5.92866C41.6245 5.99052 42.2237 6.62864 42.2237 7.4067V17.1845L42.2188 17.3061C42.1569 18.0682 41.5188 18.6674 40.7407 18.6674H3.25926L3.13763 18.6625C2.37551 18.6007 1.7763 17.9625 1.7763 17.1845V7.4067L1.78121 7.28508C1.84308 6.52295 2.48119 5.92374 3.25926 5.92374Z" fill="#595959"/>
<mask id="path-3-inside-1_455_2058" fill="white">
<path d="M13.8518 15.6298C13.8518 14.6883 14.615 13.925 15.5565 13.925H28.4434C29.3849 13.925 30.1481 14.6883 30.1481 15.6298V20.4436H13.8518V15.6298Z"/>
</mask>
<path d="M13.8518 15.6298C13.8518 14.6883 14.615 13.925 15.5565 13.925H28.4434C29.3849 13.925 30.1481 14.6883 30.1481 15.6298V20.4436H13.8518V15.6298Z" fill="#A0D9E3" stroke="#595959" stroke-width="3.71629" mask="url(#path-3-inside-1_455_2058)"/>
<path fill-rule="evenodd" clip-rule="evenodd" d="M30.1481 16.3695C30.1481 15.0195 29.0537 13.925 27.7037 13.925H16.2963C14.9462 13.925 13.8518 15.0195 13.8518 16.3695V20.4436H30.1481V16.3695ZM16.2962 15.7014H27.7036L27.7875 15.7066C28.1169 15.7478 28.3718 16.0289 28.3718 16.3695V18.6673H15.6281V16.3695L15.6333 16.2857C15.6745 15.9563 15.9556 15.7014 16.2962 15.7014Z" fill="#595959"/>
<mask id="path-5-inside-2_455_2058" fill="white">
<rect width="13.037" height="6.51852" rx="1.70472" transform="matrix(1 0 0 -1 15.4814 25.3325)"/>
</mask>
<rect width="13.037" height="6.51852" rx="1.70472" transform="matrix(1 0 0 -1 15.4814 25.3325)" fill="#A0D9E3" stroke="#595959" stroke-width="3.71629" mask="url(#path-5-inside-2_455_2058)"/>
<path fill-rule="evenodd" clip-rule="evenodd" d="M28.5185 22.888V18.814H15.4814V22.888L15.4856 23.0317C15.5599 24.3148 16.6241 25.3325 17.9259 25.3325H26.074L26.2177 25.3283C27.5008 25.254 28.5185 24.1899 28.5185 22.888ZM17.2576 20.5903H26.742V22.8881L26.7368 22.9719C26.6956 23.3013 26.4145 23.5562 26.0739 23.5562H17.9257L17.8419 23.551C17.5125 23.5098 17.2576 23.2287 17.2576 22.8881V20.5903Z" fill="#595959"/>
<path fill-rule="evenodd" clip-rule="evenodd" d="M17.926 38.3696V36.74H6.51855V38.3696L6.5227 38.5132C6.59705 39.7964 7.66119 40.8141 8.963 40.8141H15.4815L15.6251 40.8099C16.9083 40.7356 17.926 39.6714 17.926 38.3696ZM8.31202 38.5163H16.1318L16.1293 38.5341C16.056 38.8236 15.7938 39.0378 15.4816 39.0378H8.96305L8.87924 39.0326C8.6047 38.9982 8.38194 38.7973 8.31531 38.5341L8.31202 38.5163Z" fill="#595959"/>
<path fill-rule="evenodd" clip-rule="evenodd" d="M41.5557 35.9251V18.814H2.44458V35.9251L2.44873 36.0687C2.52308 37.3519 3.58721 38.3695 4.88902 38.3695H39.1113L39.2549 38.3654C40.5381 38.291 41.5557 37.2269 41.5557 35.9251ZM4.22091 20.5903H39.7794V35.9251L39.7742 36.0089C39.733 36.3384 39.4519 36.5932 39.1113 36.5932H4.88905L4.80524 36.588C4.4758 36.5468 4.22091 36.2657 4.22091 35.9251V20.5903Z" fill="#595959"/>
<path fill-rule="evenodd" clip-rule="evenodd" d="M17.926 39.1844V36.74H6.51855V39.1844L6.52302 39.3061C6.58523 40.1493 7.28907 40.8141 8.14818 40.8141H16.2963L16.418 40.8096C17.2612 40.7474 17.926 40.0435 17.926 39.1844ZM8.29501 38.5163H16.1498V39.0378H8.29501V38.5163Z" fill="#595959"/>
<path fill-rule="evenodd" clip-rule="evenodd" d="M37.4814 39.1844V36.74H26.074V39.1844L26.0784 39.3061C26.1407 40.1493 26.8445 40.8141 27.7036 40.8141H35.8518L35.9734 40.8096C36.8166 40.7474 37.4814 40.0435 37.4814 39.1844ZM27.8503 38.5163H35.7051V39.0378H27.8503V38.5163Z" fill="#595959"/>
<path d="M22.0001 21.2585C22.4501 21.2585 22.8149 21.6233 22.8149 22.0734C22.8149 22.5234 22.4501 22.8882 22.0001 22.8882C21.5501 22.8882 21.1853 22.5234 21.1853 22.0734C21.1853 21.6233 21.5501 21.2585 22.0001 21.2585Z" fill="#595959"/>
</svg>
